<svg width="128" height="128" viewBox="0 0 128 128" xmlns="http://www.w3.org/2000/svg">
  <defs>
    <linearGradient id="primaryGradient" x1="0%" y1="0%" x2="100%" y2="100%">
      <stop offset="0%" style="stop-color:#4F46E5;stop-opacity:1" />
      <stop offset="50%" style="stop-color:#7C3AED;stop-opacity:1" />
      <stop offset="100%" style="stop-color:#EC4899;stop-opacity:1" />
    </linearGradient>
    <linearGradient id="backgroundGradient" x1="0%" y1="0%" x2="100%" y2="100%">
      <stop offset="0%" style="stop-color:#F8FAFC;stop-opacity:1" />
      <stop offset="100%" style="stop-color:#E2E8F0;stop-opacity:1" />
    </linearGradient>
  </defs>
  
  <!-- Background -->
  <circle cx="64" cy="64" r="62" fill="url(#backgroundGradient)" stroke="url(#primaryGradient)" stroke-width="4"/>
  
  <!-- Modern signal visualization -->
  <g transform="translate(24, 48)">
    <!-- Bull signal (green) -->
    <rect x="8" y="32" width="6" height="16" fill="#10B981" rx="3" opacity="0.8"/>
    <rect x="16" y="24" width="6" height="24" fill="#10B981" rx="3" opacity="0.9"/>
    <rect x="24" y="16" width="6" height="32" fill="#10B981" rx="3"/>
    
    <!-- Bear signal (red) -->
    <rect x="48" y="8" width="6" height="24" fill="#EF4444" rx="3"/>
    <rect x="56" y="16" width="6" height="32" fill="#EF4444" rx="3" opacity="0.9"/>
    <rect x="64" y="24" width="6" height="24" fill="#EF4444" rx="3" opacity="0.8"/>
  </g>
  
  <!-- Trend arrow -->
  <path d="M64 20 L52 32 L58 32 L58 40 L70 40 L70 32 L76 32 Z" fill="url(#primaryGradient)"/>
  
  <!-- Data points -->
  <circle cx="40" cy="72" r="3" fill="url(#primaryGradient)" opacity="0.6"/>
  <circle cx="54" cy="64" r="3" fill="url(#primaryGradient)" opacity="0.8"/>
  <circle cx="64" cy="56" r="3" fill="url(#primaryGradient)"/>
  <circle cx="74" cy="64" r="3" fill="url(#primaryGradient)" opacity="0.8"/>
  <circle cx="88" cy="72" r="3" fill="url(#primaryGradient)" opacity="0.6"/>
  
  <!-- Connecting lines -->
  <path d="M40 72 Q47 68 54 64 Q59 60 64 56 Q69 60 74 64 Q81 68 88 72" 
        stroke="url(#primaryGradient)" stroke-width="2" fill="none" opacity="0.4"/>
</svg>
