<?xml version="1.0" standalone="no"?>
<!DOCTYPE svg PUBLIC "-//W3C//DTD SVG 20010904//EN"
 "http://www.w3.org/TR/2001/REC-SVG-20010904/DTD/svg10.dtd">
<svg version="1.0" xmlns="http://www.w3.org/2000/svg"
 width="1280.000000pt" height="1280.000000pt" viewBox="0 0 1280.000000 1280.000000"
 preserveAspectRatio="xMidYMid meet">
<metadata>
Created by potrace 1.15, written by Peter Selinger 2001-2017
</metadata>
<g transform="translate(0.000000,1280.000000) scale(0.100000,-0.100000)"
fill="#22c55e" stroke="none">
<path d="M8707 10043 c-17 -16 -1 -35 78 -93 157 -114 357 -329 445 -480 170
-291 154 -537 -49 -740 -63 -63 -94 -85 -181 -127 -188 -92 -363 -133 -564
-133 l-108 0 -133 65 c-111 55 -233 105 -253 105 -3 0 3 -7 14 -15 18 -14 17
-15 -8 -4 -15 7 -25 16 -21 22 3 6 2 7 -3 4 -6 -3 -46 7 -89 23 -117 41 -237
54 -376 41 -96 -10 -232 -34 -314 -57 -15 -4 -17 -3 -6 4 11 8 4 13 -30 22
-24 7 -63 19 -87 26 -23 8 -47 12 -53 8 -6 -3 -29 1 -52 9 -211 78 -520 126
-732 113 -216 -13 -398 -51 -659 -136 -148 -48 -154 -49 -301 -54 -191 -6
-230 -14 -387 -81 -71 -31 -170 -69 -221 -86 -180 -59 -657 -145 -607 -110 12
9 12 11 1 11 -23 0 -195 85 -257 128 -144 97 -234 190 -302 312 -54 98 -72
171 -81 340 -5 85 -14 168 -20 183 -6 16 -24 34 -43 42 -31 12 -34 12 -46 -8
-13 -21 -13 -21 -6 3 27 101 146 288 259 408 51 55 73 85 69 96 -8 22 -17 20
-45 -10 -63 -68 -373 -309 -719 -558 -237 -171 -281 -210 -311 -280 -35 -80
-32 -203 10 -326 79 -235 259 -489 537 -760 172 -168 314 -282 514 -415 229
-152 462 -269 678 -340 l82 -27 0 -169 c0 -393 51 -674 157 -859 34 -60 91
-137 179 -241 261 -310 369 -574 444 -1089 11 -80 30 -176 41 -215 105 -353
458 -623 934 -711 151 -29 483 -26 618 4 84 18 183 49 251 77 14 6 17 5 12 -3
-9 -14 118 30 189 66 186 93 326 246 383 417 25 76 35 123 66 315 39 240 76
362 162 531 57 115 123 203 353 475 258 306 372 575 431 1014 43 322 79 405
228 517 37 28 148 104 247 168 936 607 1359 1043 1332 1370 -14 168 -110 295
-365 486 -149 111 -403 236 -351 172 13 -15 12 -15 -9 -4 -12 7 -20 17 -16 23
4 6 3 8 -4 4 -26 -16 -627 335 -805 471 -85 65 -89 67 -100 56z m-1697 -1343
c18 -12 2 -12 -25 0 -13 6 -15 9 -5 9 8 0 22 -4 30 -9z m50 -20 c8 -5 11 -10
5 -10 -5 0 -17 5 -25 10 -8 5 -10 10 -5 10 6 0 17 -5 25 -10z"/>
</g>
</svg>
